SplineFontDB: 3.0
FontName: Capitan
FullName: Capitan
FamilyName: Capitan
Weight: Book
Copyright: Copyright (c) 2015, David Rizo Valero
Version: 001.000
ItalicAngle: 0
UnderlinePosition: -150
UnderlineWidth: 50
Ascent: 800
Descent: 200
InvalidEm: 0
sfntRevision: 0x00010000
LayerCount: 2
Layer: 0 1 "Back" 1
Layer: 1 1 "Fore" 0
XUID: [1021 426 -2124310150 13667784]
FSType: 0
OS2Version: 3
OS2_WeightWidthSlopeOnly: 0
OS2_UseTypoMetrics: 1
CreationTime: 1435246990
ModificationTime: 1473524357
PfmFamily: 17
TTFWeight: 400
TTFWidth: 5
LineGap: 90
VLineGap: 0
Panose: 2 0 5 3 0 0 0 0 0 0
OS2TypoAscent: 800
OS2TypoAOffset: 0
OS2TypoDescent: -200
OS2TypoDOffset: 0
OS2TypoLinegap: 90
OS2WinAscent: 722
OS2WinAOffset: 0
OS2WinDescent: 1069
OS2WinDOffset: 0
HheadAscent: 722
HheadAOffset: 0
HheadDescent: -1069
HheadDOffset: 0
OS2SubXSize: 650
OS2SubYSize: 700
OS2SubXOff: 0
OS2SubYOff: 140
OS2SupXSize: 650
OS2SupYSize: 700
OS2SupXOff: 0
OS2SupYOff: 480
OS2StrikeYSize: 49
OS2StrikeYPos: 258
OS2CapHeight: 266
OS2XHeight: 204
OS2Vendor: 'PfEd'
OS2CodePages: 00000001.00000000
OS2UnicodeRanges: 00000001.00000000.00000000.00000000
MarkAttachClasses: 1
DEI: 91125
ShortTable: cvt  2
  33
  633
EndShort
ShortTable: maxp 16
  1
  0
  40
  143
  5
  0
  0
  2
  0
  1
  1
  0
  64
  46
  0
  0
EndShort
LangName: 1033 "" "" "Regular" "FontForge 2.0 : Capitan : 26-6-2015" "" "" "" "" "" "Beatriz Pascual Hern+AOEA-ndez" "" "" "http://beatrizpascual.net/" "" "" "" "" "" "Capitan"
GaspTable: 1 65535 2 0
Encoding: UnicodeBmp
UnicodeInterp: none
NameList: AGL For New Fonts
DisplaySize: -128
AntiAlias: 1
FitToEm: 1
WinInfo: 88 11 4
BeginChars: 65539 41

StartChar: .notdef
Encoding: 65536 -1 0
Width: 364
Flags: W
LayerCount: 2
Back
Fore
SplineSet
33 0 m 1,0,-1
 33 666 l 1,1,-1
 298 666 l 1,2,-1
 298 0 l 1,3,-1
 33 0 l 1,0,-1
66 33 m 1,4,-1
 265 33 l 1,5,-1
 265 633 l 1,6,-1
 66 633 l 1,7,-1
 66 33 l 1,4,-1
EndSplineSet
EndChar

StartChar: plus
Encoding: 43 43 3
Width: 301
Flags: W
LayerCount: 2
Back
Fore
SplineSet
229 -9 m 1,0,1
 249 0 249 0 264.5 7 c 128,-1,2
 280 14 280 14 289 17 c 128,-1,3
 298 20 298 20 298 18 c 0,4,5
 298 14 298 14 292.5 -6.5 c 128,-1,6
 287 -27 287 -27 285 -27 c 0,7,8
 280 -29 280 -29 273 -32.5 c 128,-1,9
 266 -36 266 -36 259.5 -39.5 c 128,-1,10
 253 -43 253 -43 248 -45 c 0,11,12
 245 -46 245 -46 238.5 -49 c 128,-1,13
 232 -52 232 -52 229 -54 c 0,14,15
 228 -116 228 -116 228 -164 c 0,16,17
 228 -166 228 -166 206 -182 c 128,-1,18
 184 -198 184 -198 182 -198 c 0,19,20
 179 -198 179 -198 179 -76 c 1,21,22
 153 -90 153 -90 117 -105 c 1,23,24
 117 -115 117 -115 117 -124.5 c 128,-1,25
 117 -134 117 -134 117 -141 c 128,-1,26
 117 -148 117 -148 116.5 -153 c 128,-1,27
 116 -158 116 -158 116 -161 c 128,-1,28
 116 -164 116 -164 116 -164 c 2,29,30
 116 -166 116 -166 94.5 -182 c 128,-1,31
 73 -198 73 -198 71 -198 c 0,32,33
 70 -198 70 -198 69 -126 c 1,34,35
 37 -140 37 -140 19 -147.5 c 128,-1,36
 1 -155 1 -155 1 -153 c 0,37,38
 1 -150 1 -150 5.5 -129.5 c 128,-1,39
 10 -109 10 -109 12 -109 c 256,40,41
 14 -109 14 -109 68 -83 c 1,42,-1
 68 19 l 1,43,44
 33 4 33 4 17 -2.5 c 128,-1,45
 1 -9 1 -9 1 -7 c 0,46,47
 1 -4 1 -4 5.5 16.5 c 128,-1,48
 10 37 10 37 12 37 c 0,49,50
 15 37 15 37 68 63 c 1,51,-1
 68 177 l 2,52,53
 68 178 68 178 79.5 189 c 128,-1,54
 91 200 91 200 103.5 210.5 c 128,-1,55
 116 221 116 221 118 221 c 256,56,57
 120 221 120 221 118 87 c 1,58,-1
 179 115 l 1,59,-1
 179 177 l 2,60,61
 179 179 179 179 202 200 c 128,-1,62
 225 221 225 221 229 221 c 0,63,64
 230 221 230 221 230 138 c 1,65,66
 263 153 263 153 280.5 159.5 c 128,-1,67
 298 166 298 166 298 164 c 256,68,69
 298 162 298 162 295.5 151 c 128,-1,70
 293 140 293 140 289.5 129 c 128,-1,71
 286 118 286 118 285 118 c 2,72,-1
 249 101 l 1,73,-1
 230 93 l 1,74,75
 229 60 229 60 229 -9 c 1,0,1
118 -60 m 1,76,77
 128 -55 128 -55 148.5 -45.5 c 128,-1,78
 169 -36 169 -36 179 -31 c 1,79,80
 179 38 179 38 179 69 c 1,81,-1
 118 42 l 1,82,83
 118 23 118 23 118 -11 c 128,-1,84
 118 -45 118 -45 118 -60 c 1,76,77
EndSplineSet
EndChar

StartChar: hyphen
Encoding: 45 45 4
Width: 191
Flags: W
LayerCount: 2
Back
Fore
SplineSet
153 147 m 0,0,1
 163 147 163 147 169 143.5 c 128,-1,2
 175 140 175 140 180 128 c 128,-1,3
 185 116 185 116 187.5 90.5 c 128,-1,4
 190 65 190 65 190 24 c 0,5,6
 190 -12 190 -12 157.5 -54 c 128,-1,7
 125 -96 125 -96 83.5 -122.5 c 128,-1,8
 42 -149 42 -149 15 -149 c 0,9,10
 -1 -149 -1 -149 -1 317 c 0,11,12
 -1 460 -1 460 84 460 c 2,13,-1
 86 460 l 1,14,-1
 94 459 l 2,15,16
 94 458 94 458 91 456 c 0,17,18
 51 424 51 424 50 352 c 0,19,20
 50 344 50 344 49 264 c 128,-1,21
 48 184 48 184 47.5 138.5 c 128,-1,22
 47 93 47 93 49 75 c 0,23,24
 50 75 50 75 58 82.5 c 128,-1,25
 66 90 66 90 78 100.5 c 128,-1,26
 90 111 90 111 103.5 121.5 c 128,-1,27
 117 132 117 132 131 139.5 c 128,-1,28
 145 147 145 147 153 147 c 0,0,1
76 -103 m 0,29,30
 84 -103 84 -103 100 -94 c 128,-1,31
 116 -85 116 -85 130 -69 c 128,-1,32
 144 -53 144 -53 144 -39 c 0,33,34
 144 44 144 44 138 70 c 128,-1,35
 132 96 132 96 113 96 c 0,36,37
 101 96 101 96 76 74.5 c 128,-1,38
 51 53 51 53 52 43 c 0,39,40
 52 36 52 36 53 22 c 0,41,42
 55 -51 55 -51 59 -77 c 128,-1,43
 63 -103 63 -103 76 -103 c 0,29,30
EndSplineSet
EndChar

StartChar: period
Encoding: 46 46 5
Width: 66
Flags: W
LayerCount: 2
Back
Fore
SplineSet
34 50 m 0,0,1
 20 50 20 50 10 59 c 128,-1,2
 0 68 0 68 0 82 c 128,-1,3
 0 96 0 96 10.5 105 c 128,-1,4
 21 114 21 114 34 114 c 128,-1,5
 47 114 47 114 56.5 105 c 128,-1,6
 66 96 66 96 66 82 c 128,-1,7
 66 68 66 68 56.5 59 c 128,-1,8
 47 50 47 50 34 50 c 0,0,1
EndSplineSet
EndChar

StartChar: equal
Encoding: 61 61 6
Width: 168
Flags: W
LayerCount: 2
Back
Fore
SplineSet
160 184 m 0,0,1
 168 184 168 184 168 176 c 2,2,-1
 168 -326 l 2,3,4
 168 -338 168 -338 156 -338 c 2,5,-1
 143 -338 l 2,6,7
 131 -338 131 -338 131 -326 c 2,8,9
 131 -326 131 -326 131 -177 c 0,10,11
 131 -166 131 -166 114 -166 c 0,12,13
 85 -166 85 -166 15 -196 c 1,14,15
 15 -196 15 -196 12 -197 c 2,16,17
 12 -197 12 -197 10 -198 c 2,18,-1
 8 -198 l 2,19,20
 0 -198 0 -198 0 -189 c 2,21,-1
 0 326 l 2,22,23
 0 338 0 338 12 338 c 2,24,-1
 25 338 l 2,25,26
 37 338 37 338 37 326 c 2,27,-1
 37 159 l 2,28,29
 37 154 37 154 47 154 c 0,30,31
 59 154 59 154 81.5 160 c 128,-1,32
 104 166 104 166 120 172 c 2,33,-1
 137 177 l 1,34,-1
 138 178 l 2,35,36
 140 178 140 178 141 178 c 2,37,-1
 156 183 l 2,38,39
 157 184 157 184 160 184 c 0,0,1
43 -92 m 2,40,41
 44 -92 44 -92 46 -92.5 c 128,-1,42
 48 -93 48 -93 49 -93 c 0,43,44
 74 -93 74 -93 110 -74 c 1,45,-1
 95 -59 l 2,46,47
 93 -57 93 -57 93 -53 c 128,-1,48
 93 -49 93 -49 95 -47 c 2,49,-1
 106 -36 l 2,50,51
 108 -34 108 -34 111 -34 c 0,52,53
 113 -34 113 -34 117 -36 c 2,54,-1
 131 -50 l 1,55,-1
 131 56 l 1,56,-1
 117 42 l 2,57,58
 115 40 115 40 111 40 c 128,-1,59
 107 40 107 40 106 42 c 2,60,-1
 95 53 l 2,61,62
 93 54 93 54 93 58 c 128,-1,63
 93 62 93 62 95 64 c 2,64,-1
 127 96 l 1,65,-1
 122 96 l 2,66,67
 97 96 97 96 63 78 c 1,68,-1
 76 64 l 2,69,70
 78 60 78 60 78 58 c 0,71,72
 78 55 78 55 76 53 c 2,73,-1
 65 42 l 2,74,75
 64 41 64 41 61 41 c 2,76,-1
 54 42 l 1,77,78
 46 49 46 49 41.5 53 c 128,-1,79
 37 57 37 57 37 56 c 2,80,-1
 37 -52 l 1,81,-1
 54 -36 l 2,82,83
 56 -34 56 -34 59 -34 c 0,84,85
 61 -34 61 -34 65 -36 c 2,86,-1
 76 -47 l 2,87,88
 78 -51 78 -51 78 -53 c 128,-1,89
 78 -55 78 -55 76 -59 c 2,90,-1
 43 -92 l 2,40,41
EndSplineSet
EndChar

StartChar: A
Encoding: 65 65 7
Width: 172
Flags: W
LayerCount: 2
Back
Fore
SplineSet
166 500 m 1,0,1
 166 496 166 496 167 22 c 128,-1,2
 168 -452 168 -452 168 -453 c 128,-1,3
 168 -454 168 -454 142 -476.5 c 128,-1,4
 116 -499 116 -499 115 -499 c 2,5,6
 115 -499 115 -499 113 -248.5 c 128,-1,7
 111 2 111 2 110.5 217 c 128,-1,8
 110 432 110 432 111 467 c 0,9,10
 112 467 112 467 119 471 c 0,11,12
 120 472 120 472 135 481 c 128,-1,13
 150 490 150 490 166 500 c 1,0,1
55 500 m 1,14,15
 55 496 55 496 56.5 22 c 128,-1,16
 58 -452 58 -452 58 -453 c 128,-1,17
 58 -454 58 -454 32.5 -476.5 c 128,-1,18
 7 -499 7 -499 5 -499 c 0,19,20
 4 -499 4 -499 2.5 -248.5 c 128,-1,21
 1 2 1 2 0.5 217 c 128,-1,22
 0 432 0 432 1 467 c 0,23,24
 2 467 2 467 8 471 c 0,25,26
 10 472 10 472 25 481 c 128,-1,27
 40 490 40 490 55 500 c 1,14,15
EndSplineSet
EndChar

StartChar: B
Encoding: 66 66 8
Width: 59
Flags: W
LayerCount: 2
Back
Fore
SplineSet
55 500 m 1,0,1
 55 497 55 497 56.5 24.5 c 128,-1,2
 58 -448 58 -448 58 -449 c 128,-1,3
 58 -450 58 -450 32 -474 c 128,-1,4
 6 -498 6 -498 5 -498 c 256,5,6
 4 -498 4 -498 1.5 -15.5 c 128,-1,7
 -1 467 -1 467 0 468 c 0,8,9
 2 468 2 468 55 500 c 1,0,1
EndSplineSet
EndChar

StartChar: C
Encoding: 67 67 9
Width: 26
Flags: W
LayerCount: 2
Back
Fore
SplineSet
0 226 m 0,0,1
 0 227 0 227 11.5 238 c 128,-1,2
 23 249 23 249 24 249 c 256,3,4
 25 249 25 249 25 26 c 0,5,6
 25 25 25 25 21.5 21 c 128,-1,7
 18 17 18 17 13.5 12.5 c 128,-1,8
 9 8 9 8 5.5 4.5 c 128,-1,9
 2 1 2 1 1 1 c 256,10,11
 0 1 0 1 0 226 c 0,0,1
EndSplineSet
EndChar

StartChar: D
Encoding: 68 68 10
Width: 27
Flags: W
LayerCount: 2
Back
Fore
SplineSet
0 226 m 0,0,1
 0 227 0 227 12 238.5 c 128,-1,2
 24 250 24 250 25 250 c 256,3,4
 26 250 26 250 26 150 c 0,5,6
 26 149 26 149 14 137 c 128,-1,7
 2 125 2 125 1 125 c 256,8,9
 0 125 0 125 0 226 c 0,0,1
EndSplineSet
EndChar

StartChar: E
Encoding: 69 69 11
Width: 34
Flags: W
LayerCount: 2
Back
Fore
SplineSet
1 95 m 2,0,1
 1 96 1 96 16.5 110.5 c 128,-1,2
 32 125 32 125 33 125 c 256,3,4
 34 125 34 125 33 31 c 0,5,6
 33 29 33 29 18 14 c 128,-1,7
 3 -1 3 -1 1 -1 c 2,8,-1
 1 95 l 2,0,1
EndSplineSet
EndChar

StartChar: F
Encoding: 70 70 12
Width: 138
Flags: W
LayerCount: 2
Back
Fore
SplineSet
137 168 m 256,0,1
 137 167 137 167 117 129 c 1,2,-1
 37 85 l 1,3,-1
 37 40 l 2,4,5
 37 38 37 38 20 19 c 128,-1,6
 3 0 3 0 1 0 c 0,7,8
 0 0 0 0 0 123 c 0,9,10
 0 124 0 124 17 142 c 128,-1,11
 34 160 34 160 35 160 c 128,-1,12
 36 160 36 160 36 120 c 1,13,14
 60 132 60 132 98.5 150.5 c 128,-1,15
 137 169 137 169 137 168 c 256,0,1
EndSplineSet
EndChar

StartChar: G
Encoding: 71 71 13
Width: 152
Flags: W
LayerCount: 2
Back
Fore
SplineSet
150 158 m 0,0,1
 152 158 152 158 152 39 c 0,2,3
 152 37 152 37 133.5 18.5 c 128,-1,4
 115 0 115 0 113 0 c 0,5,6
 112 0 112 0 112 87 c 1,7,8
 84 101 84 101 23 131 c 1,9,-1
 1 168 l 2,10,11
 1 170 1 170 42 152.5 c 128,-1,12
 83 135 83 135 112 122 c 0,13,14
 113 124 113 124 122.5 133 c 128,-1,15
 132 142 132 142 140.5 150 c 128,-1,16
 149 158 149 158 150 158 c 0,0,1
EndSplineSet
EndChar

StartChar: H
Encoding: 72 72 14
Width: 151
Flags: W
LayerCount: 2
Back
Fore
SplineSet
149 159 m 0,0,1
 151 159 151 159 151 40 c 0,2,3
 151 38 151 38 132.5 19.5 c 128,-1,4
 114 1 114 1 112 1 c 2,5,6
 112 1 112 1 110 41 c 1,7,8
 91 51 91 51 58 69 c 1,9,-1
 36 106 l 2,10,11
 36 107 36 107 63 95.5 c 128,-1,12
 90 84 90 84 110 75 c 1,13,-1
 110 88 l 1,14,15
 83 102 83 102 22 132 c 1,16,-1
 0 169 l 2,17,18
 0 171 0 171 41 153.5 c 128,-1,19
 82 136 82 136 111 123 c 0,20,21
 112 125 112 125 121.5 134 c 128,-1,22
 131 143 131 143 139.5 151 c 128,-1,23
 148 159 148 159 149 159 c 0,0,1
EndSplineSet
EndChar

StartChar: bracketleft
Encoding: 91 91 16
Width: 676
Flags: W
LayerCount: 2
Back
Fore
SplineSet
9 0 m 0,0,1
 7 0 7 0 3 5.5 c 128,-1,2
 -1 11 -1 11 -1 13.5 c 128,-1,3
 -1 16 -1 16 4 32 c 128,-1,4
 9 48 9 48 21 76.5 c 128,-1,5
 33 105 33 105 51 136.5 c 128,-1,6
 69 168 69 168 99 201 c 128,-1,7
 129 234 129 234 165.5 260.5 c 128,-1,8
 202 287 202 287 255 304 c 128,-1,9
 308 321 308 321 368 321 c 0,10,11
 422 321 422 321 468 308.5 c 128,-1,12
 514 296 514 296 545 276 c 128,-1,13
 576 256 576 256 600.5 230.5 c 128,-1,14
 625 205 625 205 638.5 181 c 128,-1,15
 652 157 652 157 661 135 c 128,-1,16
 670 113 670 113 673 101 c 128,-1,17
 676 89 676 89 676 86 c 0,18,19
 676 80 676 80 652.5 40.5 c 128,-1,20
 629 1 629 1 626 1 c 0,21,22
 625 1 625 1 623 12 c 0,23,24
 620 29 620 29 617.5 41 c 128,-1,25
 615 53 615 53 605.5 80 c 128,-1,26
 596 107 596 107 584 127 c 128,-1,27
 572 147 572 147 548.5 171.5 c 128,-1,28
 525 196 525 196 496.5 212 c 128,-1,29
 468 228 468 228 424 239 c 128,-1,30
 380 250 380 250 328 250 c 0,31,32
 285 250 285 250 244 236 c 128,-1,33
 203 222 203 222 172.5 200 c 128,-1,34
 142 178 142 178 115 151.5 c 128,-1,35
 88 125 88 125 69 98.5 c 128,-1,36
 50 72 50 72 37 50 c 128,-1,37
 24 28 24 28 17 14 c 128,-1,38
 10 0 10 0 9 0 c 0,0,1
370 136 m 0,39,40
 370 148 370 148 365 157.5 c 128,-1,41
 360 167 360 167 350.5 172.5 c 128,-1,42
 341 178 341 178 329 178 c 0,43,44
 312 178 312 178 299.5 165.5 c 128,-1,45
 287 153 287 153 287 136 c 0,46,47
 287 118 287 118 299.5 106.5 c 128,-1,48
 312 95 312 95 329 95 c 0,49,50
 347 95 347 95 358.5 106.5 c 128,-1,51
 370 118 370 118 370 136 c 0,39,40
EndSplineSet
EndChar

StartChar: bracketright
Encoding: 93 93 17
Width: 655
Flags: W
LayerCount: 2
Back
Fore
SplineSet
641 7 m 2,0,1
 644 7 644 7 648 1 c 128,-1,2
 652 -5 652 -5 652 -7 c 0,3,4
 652 -15 652 -15 651 -27.5 c 128,-1,5
 650 -40 650 -40 644 -75.5 c 128,-1,6
 638 -111 638 -111 627 -143.5 c 128,-1,7
 616 -176 616 -176 592 -215 c 128,-1,8
 568 -254 568 -254 535.5 -282.5 c 128,-1,9
 503 -311 503 -311 450 -330 c 128,-1,10
 397 -349 397 -349 332 -349 c 0,11,12
 274 -349 274 -349 224 -335.5 c 128,-1,13
 174 -322 174 -322 140.5 -300.5 c 128,-1,14
 107 -279 107 -279 80.5 -251.5 c 128,-1,15
 54 -224 54 -224 39.5 -198 c 128,-1,16
 25 -172 25 -172 15 -148 c 128,-1,17
 5 -124 5 -124 2 -111 c 128,-1,18
 -1 -98 -1 -98 -1 -94 c 0,19,20
 -1 -91 -1 -91 6.5 -76.5 c 128,-1,21
 14 -62 14 -62 24 -46 c 128,-1,22
 34 -30 34 -30 43 -16.5 c 128,-1,23
 52 -3 52 -3 53 -3 c 256,24,25
 54 -3 54 -3 56 -18 c 128,-1,26
 58 -33 58 -33 64.5 -57 c 128,-1,27
 71 -81 71 -81 83 -109.5 c 128,-1,28
 95 -138 95 -138 118.5 -167 c 128,-1,29
 142 -196 142 -196 174.5 -219.5 c 128,-1,30
 207 -243 207 -243 259.5 -258 c 128,-1,31
 312 -273 312 -273 376 -273 c 0,32,33
 423 -273 423 -273 462.5 -257.5 c 128,-1,34
 502 -242 502 -242 528.5 -217.5 c 128,-1,35
 555 -193 555 -193 575.5 -163 c 128,-1,36
 596 -133 596 -133 608 -103 c 128,-1,37
 620 -73 620 -73 627.5 -48.5 c 128,-1,38
 635 -24 635 -24 638 -8.5 c 128,-1,39
 641 7 641 7 641 7 c 2,0,1
343 -153 m 0,40,41
 325 -153 325 -153 311.5 -139.5 c 128,-1,42
 298 -126 298 -126 298 -108 c 128,-1,43
 298 -90 298 -90 311.5 -76.5 c 128,-1,44
 325 -63 325 -63 343 -63 c 0,45,46
 362 -63 362 -63 375 -76 c 128,-1,47
 388 -89 388 -89 388 -108 c 128,-1,48
 388 -127 388 -127 375 -140 c 128,-1,49
 362 -153 362 -153 343 -153 c 0,40,41
EndSplineSet
EndChar

StartChar: a
Encoding: 97 97 18
Width: 370
Flags: W
LayerCount: 2
Back
Fore
SplineSet
309 456 m 1,0,-1
 368 498 l 1,1,-1
 368 -448 l 1,2,3
 359 -456 359 -456 351 -463 c 128,-1,4
 343 -470 343 -470 338 -474 c 128,-1,5
 333 -478 333 -478 329 -481.5 c 128,-1,6
 325 -485 325 -485 323 -487 c 0,7,8
 321 -488 321 -488 318 -490 c 0,9,10
 317 -491 317 -491 316 -491 c 2,11,12
 316 -491 316 -491 316 -484.5 c 128,-1,13
 316 -478 316 -478 316 -466 c 128,-1,14
 316 -454 316 -454 316 -438 c 128,-1,15
 316 -422 316 -422 315.5 -400 c 128,-1,16
 315 -378 315 -378 315 -354.5 c 128,-1,17
 315 -331 315 -331 314.5 -301.5 c 128,-1,18
 314 -272 314 -272 314 -244 c 1,19,20
 305 -244 305 -244 184 -237.5 c 128,-1,21
 63 -231 63 -231 57 -231 c 1,22,-1
 57 -448 l 1,23,24
 46 -458 46 -458 36.5 -466.5 c 128,-1,25
 27 -475 27 -475 20.5 -480.5 c 128,-1,26
 14 -486 14 -486 12 -487 c 256,27,28
 10 -488 10 -488 8 -490 c 0,29,30
 6 -491 6 -491 5 -491 c 1,31,32
 5 -410 5 -410 3 23 c 128,-1,33
 1 456 1 456 -1 456 c 2,34,-1
 57 498 l 1,35,-1
 57 251 l 1,36,37
 70 251 70 251 181.5 246 c 128,-1,38
 293 241 293 241 312 241 c 1,39,40
 312 261 312 261 312 281 c 128,-1,41
 312 301 312 301 312 318.5 c 128,-1,42
 312 336 312 336 311.5 352.5 c 128,-1,43
 311 369 311 369 311 382.5 c 128,-1,44
 311 396 311 396 310.5 407.5 c 128,-1,45
 310 419 310 419 310 428 c 128,-1,46
 310 437 310 437 310 443 c 128,-1,47
 310 449 310 449 309.5 452.5 c 128,-1,48
 309 456 309 456 309 456 c 1,0,-1
57 77 m 1,49,-1
 57 -60 l 1,50,51
 71 -60 71 -60 184.5 -65 c 128,-1,52
 298 -70 298 -70 314 -70 c 1,53,54
 314 19 314 19 313 65 c 1,55,56
 296 65 296 65 178.5 71 c 128,-1,57
 61 77 61 77 57 77 c 1,49,-1
312 176 m 1,58,59
 293 176 293 176 177 182.5 c 128,-1,60
 61 189 61 189 57 189 c 1,61,-1
 57 139 l 1,62,63
 81 139 81 139 185 135 c 128,-1,64
 289 131 289 131 313 129 c 1,65,66
 313 137 313 137 312.5 153 c 128,-1,67
 312 169 312 169 312 176 c 1,58,59
57 -123 m 1,68,-1
 57 -169 l 1,69,70
 76 -171 76 -171 183 -175 c 128,-1,71
 290 -179 290 -179 314 -179 c 1,72,-1
 314 -135 l 1,73,74
 302 -135 302 -135 182 -129 c 128,-1,75
 62 -123 62 -123 57 -123 c 1,68,-1
EndSplineSet
EndChar

StartChar: b
Encoding: 98 98 19
Width: 370
Flags: W
LayerCount: 2
Back
Fore
SplineSet
362 11 m 0,0,1
 362 -74 362 -74 311 -131.5 c 128,-1,2
 260 -189 260 -189 185 -194 c 1,3,4
 190 -442 190 -442 190 -488 c 0,5,6
 190 -540 190 -540 180 -579 c 128,-1,7
 170 -618 170 -618 153 -638 c 128,-1,8
 136 -658 136 -658 118.5 -668 c 128,-1,9
 101 -678 101 -678 84 -678 c 0,10,11
 39 -678 39 -678 39 -611 c 0,12,13
 39 -586 39 -586 69 -552 c 0,14,15
 92 -526 92 -526 92 -544 c 0,16,17
 92 -549 92 -549 89.5 -559 c 128,-1,18
 87 -569 87 -569 85 -578 c 128,-1,19
 83 -587 83 -587 82 -596 c 128,-1,20
 81 -605 81 -605 85 -610.5 c 128,-1,21
 89 -616 89 -616 98 -616 c 0,22,23
 143 -616 143 -616 149 -496.5 c 128,-1,24
 155 -377 155 -377 138 -192 c 1,25,26
 73 -180 73 -180 35 -128.5 c 128,-1,27
 -3 -77 -3 -77 -3 6 c 0,28,29
 -3 22 -3 22 2 43.5 c 128,-1,30
 7 65 7 65 15.5 87.5 c 128,-1,31
 24 110 24 110 35 134.5 c 128,-1,32
 46 159 46 159 57 180.5 c 128,-1,33
 68 202 68 202 79 222.5 c 128,-1,34
 90 243 90 243 98 257.5 c 128,-1,35
 106 272 106 272 111.5 281 c 128,-1,36
 117 290 117 290 117 291 c 0,37,38
 117 321 117 321 118 402 c 128,-1,39
 119 483 119 483 120 552 c 128,-1,40
 121 621 121 621 121 622 c 0,41,42
 121 644 121 644 157.5 682.5 c 128,-1,43
 194 721 194 721 214 721 c 0,44,45
 245 721 245 721 261 691 c 128,-1,46
 277 661 277 661 276 618 c 0,47,48
 276 600 276 600 270 574 c 128,-1,49
 264 548 264 548 255 521.5 c 128,-1,50
 246 495 246 495 235 467.5 c 128,-1,51
 224 440 224 440 212.5 416 c 128,-1,52
 201 392 201 392 192 373 c 128,-1,53
 183 354 183 354 177.5 342.5 c 128,-1,54
 172 331 172 331 172 331 c 2,55,56
 172 332 172 332 172.5 307 c 128,-1,57
 173 282 173 282 174.5 230 c 128,-1,58
 176 178 176 178 177 120 c 1,59,60
 202 131 202 131 230 131 c 0,61,62
 268 131 268 131 296 117.5 c 128,-1,63
 324 104 324 104 337.5 84 c 128,-1,64
 351 64 351 64 356.5 45.5 c 128,-1,65
 362 27 362 27 362 11 c 0,0,1
187 684 m 0,66,67
 183 684 183 684 168 663.5 c 128,-1,68
 153 643 153 643 153 633 c 0,69,70
 153 603 153 603 159.5 498 c 128,-1,71
 166 393 166 393 171 394 c 0,72,73
 175 394 175 394 191 431 c 128,-1,74
 207 468 207 468 222.5 521.5 c 128,-1,75
 238 575 238 575 236 609 c 0,76,77
 234 632 234 632 224.5 650 c 128,-1,78
 215 668 215 668 204.5 676 c 128,-1,79
 194 684 194 684 187 684 c 0,66,67
44 21 m 0,80,81
 44 -42 44 -42 69.5 -80 c 128,-1,82
 95 -118 95 -118 134 -134 c 1,83,84
 129 -54 129 -54 124 34 c 1,85,86
 105 17 105 17 84 -21 c 1,87,88
 84 -8 84 -8 93 22 c 128,-1,89
 102 52 102 52 122 78 c 1,90,91
 120 110 120 110 120 177.5 c 128,-1,92
 120 245 120 245 120 259 c 1,93,94
 89 201 89 201 66.5 136 c 128,-1,95
 44 71 44 71 44 21 c 0,80,81
190 -146 m 2,96,97
 249 -146 249 -146 280 -116.5 c 128,-1,98
 311 -87 311 -87 311 -35 c 0,99,100
 311 2 311 2 276.5 31.5 c 128,-1,101
 242 61 242 61 193 61 c 0,102,103
 183 61 183 61 178 60 c 1,104,105
 179 41 179 41 183 -146 c 1,106,-1
 190 -146 l 2,96,97
EndSplineSet
EndChar

StartChar: c
Encoding: 99 99 20
Width: 410
Flags: W
LayerCount: 2
Back
Fore
SplineSet
146 -47 m 2,0,1
 146 -50 146 -50 144.5 -57.5 c 128,-1,2
 143 -65 143 -65 137.5 -77.5 c 128,-1,3
 132 -90 132 -90 124 -101.5 c 128,-1,4
 116 -113 116 -113 102 -121 c 128,-1,5
 88 -129 88 -129 70 -129 c 0,6,7
 48 -129 48 -129 33 -120 c 128,-1,8
 18 -111 18 -111 11.5 -94 c 128,-1,9
 5 -77 5 -77 2.5 -60.5 c 128,-1,10
 0 -44 0 -44 0 -22 c 0,11,12
 0 55 0 55 67.5 116 c 128,-1,13
 135 177 135 177 223 177 c 0,14,15
 270 177 270 177 306.5 159.5 c 128,-1,16
 343 142 343 142 363.5 113 c 128,-1,17
 384 84 384 84 394.5 50 c 128,-1,18
 405 16 405 16 405 -20 c 0,19,20
 405 -61 405 -61 389 -122 c 128,-1,21
 373 -183 373 -183 347.5 -248 c 128,-1,22
 322 -313 322 -313 291 -382.5 c 128,-1,23
 260 -452 260 -452 228.5 -513 c 128,-1,24
 197 -574 197 -574 170.5 -622.5 c 128,-1,25
 144 -671 144 -671 125.5 -699.5 c 128,-1,26
 107 -728 107 -728 104 -728 c 0,27,28
 103 -728 103 -728 102.5 -727 c 128,-1,29
 102 -726 102 -726 102.5 -723.5 c 128,-1,30
 103 -721 103 -721 103.5 -718.5 c 128,-1,31
 104 -716 104 -716 104 -713 c 128,-1,32
 104 -710 104 -710 104 -708 c 0,33,34
 104 -703 104 -703 141.5 -627.5 c 128,-1,35
 179 -552 179 -552 223.5 -458.5 c 128,-1,36
 268 -365 268 -365 305.5 -257 c 128,-1,37
 343 -149 343 -149 343 -87 c 0,38,39
 343 -3 343 -3 290.5 48 c 128,-1,40
 238 99 238 99 173 99 c 0,41,42
 77 99 77 99 46 37 c 0,43,44
 25 -5 25 -5 46 -40 c 0,45,46
 59 -61 59 -61 81 -61 c 0,47,48
 92 -61 92 -61 102 -60.5 c 128,-1,49
 112 -60 112 -60 118 -58.5 c 128,-1,50
 124 -57 124 -57 129.5 -55.5 c 128,-1,51
 135 -54 135 -54 137.5 -53 c 128,-1,52
 140 -52 140 -52 142 -50 c 128,-1,53
 144 -48 144 -48 145 -47.5 c 128,-1,54
 146 -47 146 -47 146 -46 c 1,55,56
 146 -47 146 -47 146 -47 c 2,0,1
EndSplineSet
EndChar

StartChar: d
Encoding: 100 100 21
Width: 488
Flags: W
LayerCount: 2
Back
Fore
SplineSet
224 180 m 2,0,1
 236 180 236 180 236 161 c 2,2,-1
 236 -944 l 2,3,4
 236 -956 236 -956 233 -959 c 128,-1,5
 230 -962 230 -962 224 -962 c 2,6,-1
 216 -962 l 2,7,8
 212 -962 212 -962 210 -961.5 c 128,-1,9
 208 -961 208 -961 206 -957 c 128,-1,10
 204 -953 204 -953 204 -944 c 2,11,-1
 204 -158 l 1,12,13
 196 -135 196 -135 177 -135 c 2,14,-1
 56 -135 l 2,15,16
 51 -135 51 -135 48 -135.5 c 128,-1,17
 45 -136 45 -136 40 -141.5 c 128,-1,18
 35 -147 35 -147 33 -158 c 2,19,-1
 33 -176 l 2,20,21
 33 -186 33 -186 21 -186 c 2,22,-1
 12 -186 l 2,23,24
 0 -186 0 -186 0 -176 c 2,25,-1
 0 170 l 2,26,27
 0 180 0 180 12 180 c 2,28,-1
 21 180 l 2,29,30
 33 180 33 180 33 170 c 2,31,-1
 33 160 l 1,32,33
 37 127 37 127 57 127 c 2,34,-1
 174 127 l 2,35,36
 200 127 200 127 204 166 c 0,37,38
 205 180 205 180 216 180 c 2,39,-1
 224 180 l 2,0,1
57 -53 m 2,40,-1
 174 -53 l 2,41,42
 200 -53 200 -53 204 -16 c 1,43,-1
 204 22 l 1,44,45
 196 45 196 45 177 45 c 2,46,-1
 56 45 l 2,47,48
 51 45 51 45 48 44.5 c 128,-1,49
 45 44 45 44 40 38.5 c 128,-1,50
 35 33 35 33 33 22 c 2,51,-1
 33 -20 l 1,52,53
 37 -53 37 -53 57 -53 c 2,40,-1
430 5 m 0,54,55
 466 -60 466 -60 479 -81 c 0,56,57
 486 -92 486 -92 486 -105 c 2,58,-1
 484 -117 l 1,59,60
 439 -203 439 -203 404 -258 c 0,61,62
 392 -276 392 -276 380 -285 c 1,63,-1
 380 -1059 l 2,64,65
 380 -1069 380 -1069 370 -1069 c 2,66,-1
 357 -1069 l 2,67,68
 347 -1069 347 -1069 347 -1059 c 2,69,-1
 347 -280 l 1,70,-1
 342 -272 l 2,71,72
 339 -268 339 -268 308 -215 c 128,-1,73
 277 -162 277 -162 272 -156 c 0,74,75
 268 -151 268 -151 268 -142 c 0,76,77
 268 -136 268 -136 272 -126 c 2,78,-1
 327 -28 l 2,79,80
 331 -23 331 -23 331 -20 c 0,81,82
 331 -16 331 -16 327 -11 c 0,83,84
 324 -6 324 -6 301 35 c 128,-1,85
 278 76 278 76 274 83 c 0,86,87
 268 94 268 94 268 99 c 0,88,89
 268 102 268 102 271 107 c 128,-1,90
 274 112 274 112 274 115 c 2,91,-1
 354 255 l 2,92,93
 365 278 365 278 378 284 c 1,94,-1
 378 581 l 2,95,96
 378 591 378 591 388 591 c 2,97,-1
 401 591 l 2,98,99
 411 591 411 591 411 581 c 2,100,-1
 411 273 l 1,101,-1
 417 265 l 2,102,103
 423 256 423 256 450 209 c 128,-1,104
 477 162 477 162 482 152 c 0,105,106
 488 140 488 140 488 132 c 0,107,108
 488 127 488 127 485 121 c 2,109,-1
 429 26 l 2,110,111
 426 20 426 20 426 16 c 0,112,113
 426 13 426 13 430 5 c 0,54,55
328 135 m 1,114,-1
 389 29 l 1,115,-1
 429 97 l 1,116,-1
 367 201 l 1,117,-1
 328 135 l 1,114,-1
389 -206 m 1,118,-1
 429 -138 l 1,119,-1
 367 -34 l 1,120,-1
 328 -100 l 1,121,-1
 389 -206 l 1,118,-1
EndSplineSet
EndChar

StartChar: e
Encoding: 101 101 22
Width: 640
Flags: W
LayerCount: 2
Back
Fore
SplineSet
567 -287 m 256,0,1
 569 -287 569 -287 587 -274 c 0,2,3
 610 -259 610 -259 611 -261 c 0,4,5
 611 -268 611 -268 588.5 -302 c 128,-1,6
 566 -336 566 -336 561 -336 c 0,7,8
 559 -336 559 -336 462.5 -338 c 128,-1,9
 366 -340 366 -340 363 -340 c 0,10,11
 358 -340 358 -340 375 -321 c 128,-1,12
 392 -302 392 -302 421 -270 c 128,-1,13
 450 -238 450 -238 479.5 -201.5 c 128,-1,14
 509 -165 509 -165 530 -124.5 c 128,-1,15
 551 -84 551 -84 551 -55 c 0,16,17
 551 -40 551 -40 546 -29 c 128,-1,18
 541 -18 541 -18 533 -11.5 c 128,-1,19
 525 -5 525 -5 514 -1 c 128,-1,20
 503 3 503 3 492 4 c 128,-1,21
 481 5 481 5 470 5 c 128,-1,22
 459 5 459 5 450.5 4 c 128,-1,23
 442 3 442 3 436 2 c 128,-1,24
 430 1 430 1 430 1 c 2,25,26
 426 1 426 1 460 55 c 128,-1,27
 494 109 494 109 530.5 163.5 c 128,-1,28
 567 218 567 218 567 220 c 0,29,30
 567 221 567 221 475.5 223 c 128,-1,31
 384 225 384 225 383 224 c 0,32,33
 382 224 382 224 340.5 186 c 128,-1,34
 299 148 299 148 297 148 c 256,35,36
 295 148 295 148 277.5 151 c 128,-1,37
 260 154 260 154 240 156 c 128,-1,38
 220 158 220 158 194 158.5 c 128,-1,39
 168 159 168 159 145 151.5 c 128,-1,40
 122 144 122 144 102 129.5 c 128,-1,41
 82 115 82 115 70 85.5 c 128,-1,42
 58 56 58 56 58 15 c 0,43,44
 58 -28 58 -28 79.5 -60 c 128,-1,45
 101 -92 101 -92 133.5 -107 c 128,-1,46
 166 -122 166 -122 202 -122 c 0,47,48
 220 -122 220 -122 235 -119.5 c 128,-1,49
 250 -117 250 -117 260 -113.5 c 128,-1,50
 270 -110 270 -110 279 -106 c 128,-1,51
 288 -102 288 -102 292.5 -98.5 c 128,-1,52
 297 -95 297 -95 301 -92.5 c 128,-1,53
 305 -90 305 -90 305.5 -90 c 128,-1,54
 306 -90 306 -90 307 -93 c 0,55,56
 307 -113 307 -113 263.5 -139 c 128,-1,57
 220 -165 220 -165 156 -165 c 0,58,59
 93 -165 93 -165 48 -121.5 c 128,-1,60
 3 -78 3 -78 3 0 c 0,61,62
 3 75 3 75 63.5 132.5 c 128,-1,63
 124 190 124 190 195 190 c 0,64,65
 210 190 210 190 226 188.5 c 128,-1,66
 242 187 242 187 254 184.5 c 128,-1,67
 266 182 266 182 275.5 179.5 c 128,-1,68
 285 177 285 177 291 175.5 c 128,-1,69
 297 174 297 174 297 174 c 2,70,71
 299 174 299 174 336.5 221.5 c 128,-1,72
 374 269 374 269 375 269 c 0,73,74
 393 269 393 269 510 266.5 c 128,-1,75
 627 264 627 264 627 262 c 0,76,77
 627 258 627 258 611.5 234 c 128,-1,78
 596 210 596 210 574.5 178.5 c 128,-1,79
 553 147 553 147 531.5 115.5 c 128,-1,80
 510 84 510 84 496 63 c 128,-1,81
 482 42 482 42 484 42 c 2,82,83
 484 42 484 42 489 42.5 c 128,-1,84
 494 43 494 43 500.5 43 c 128,-1,85
 507 43 507 43 516.5 43 c 128,-1,86
 526 43 526 43 535.5 41 c 128,-1,87
 545 39 545 39 555 36 c 128,-1,88
 565 33 565 33 573 27 c 128,-1,89
 581 21 581 21 588 13.5 c 128,-1,90
 595 6 595 6 599 -6 c 128,-1,91
 603 -18 603 -18 603 -32 c 0,92,93
 603 -57 603 -57 587 -92 c 128,-1,94
 571 -127 571 -127 549.5 -160 c 128,-1,95
 528 -193 528 -193 506 -223 c 128,-1,96
 484 -253 484 -253 469.5 -271 c 128,-1,97
 455 -289 455 -289 456 -289 c 0,98,99
 459 -289 459 -289 512 -288 c 128,-1,100
 565 -287 565 -287 567 -287 c 256,0,1
EndSplineSet
EndChar

StartChar: f
Encoding: 102 102 23
Width: 457
Flags: W
LayerCount: 2
Back
Fore
SplineSet
408 -229 m 256,0,1
 409 -229 409 -229 417 -223 c 128,-1,2
 425 -217 425 -217 432.5 -211.5 c 128,-1,3
 440 -206 440 -206 440 -208 c 0,4,5
 440 -214 440 -214 423.5 -241 c 128,-1,6
 407 -268 407 -268 404 -268 c 0,7,8
 402 -268 402 -268 332.5 -269.5 c 128,-1,9
 263 -271 263 -271 261 -271 c 0,10,11
 258 -271 258 -271 270 -255.5 c 128,-1,12
 282 -240 282 -240 303 -214.5 c 128,-1,13
 324 -189 324 -189 345 -160.5 c 128,-1,14
 366 -132 366 -132 381.5 -100 c 128,-1,15
 397 -68 397 -68 397 -44 c 0,16,17
 397 -32 397 -32 393 -23.5 c 128,-1,18
 389 -15 389 -15 383 -10 c 128,-1,19
 377 -5 377 -5 369.5 -1.5 c 128,-1,20
 362 2 362 2 354 3 c 128,-1,21
 346 4 346 4 338 4 c 128,-1,22
 330 4 330 4 324 3 c 128,-1,23
 318 2 318 2 313.5 1.5 c 128,-1,24
 309 1 309 1 309 1 c 2,25,26
 306 1 306 1 328.5 43.5 c 128,-1,27
 351 86 351 86 375 129.5 c 128,-1,28
 399 173 399 173 399 174 c 0,29,30
 399 178 399 178 267 178 c 0,31,32
 266 178 266 178 240.5 147.5 c 128,-1,33
 215 117 215 117 213 117 c 0,34,35
 212 117 212 117 205.5 118 c 128,-1,36
 199 119 199 119 191.5 120.5 c 128,-1,37
 184 122 184 122 173 123.5 c 128,-1,38
 162 125 162 125 151 125 c 1,39,40
 151 41 151 41 149 -97 c 1,41,42
 186 -96 186 -96 217 -74 c 0,43,44
 220 -71 220 -71 220 -74 c 0,45,46
 220 -82 220 -82 212 -92 c 128,-1,47
 204 -102 204 -102 187 -112 c 128,-1,48
 170 -122 170 -122 149 -127 c 1,49,50
 148 -188 148 -188 147 -249 c 128,-1,51
 146 -310 146 -310 146 -341.5 c 128,-1,52
 146 -373 146 -373 146 -373 c 2,53,54
 146 -403 146 -403 122.5 -427.5 c 128,-1,55
 99 -452 99 -452 80 -452 c 0,56,57
 72 -452 72 -452 65 -444 c 128,-1,58
 58 -436 58 -436 55.5 -428.5 c 128,-1,59
 53 -421 53 -421 53 -419 c 256,60,61
 53 -417 53 -417 63 -402 c 128,-1,62
 73 -387 73 -387 75 -387 c 2,63,64
 75 -387 75 -387 75 -390.5 c 128,-1,65
 75 -394 75 -394 75.5 -399 c 128,-1,66
 76 -404 76 -404 77.5 -409 c 128,-1,67
 79 -414 79 -414 83 -417 c 128,-1,68
 87 -420 87 -420 92 -420 c 0,69,70
 104 -420 104 -420 108 -411.5 c 128,-1,71
 112 -403 112 -403 112 -382 c 0,72,73
 112 -378 112 -378 112.5 -343.5 c 128,-1,74
 113 -309 113 -309 113.5 -248.5 c 128,-1,75
 114 -188 114 -188 114 -132 c 1,76,77
 114 -132 114 -132 113.5 -132 c 128,-1,78
 113 -132 113 -132 112 -132 c 0,79,80
 66 -132 66 -132 33.5 -97.5 c 128,-1,81
 1 -63 1 -63 1 -1 c 0,82,83
 1 53 1 53 36 95 c 128,-1,84
 71 137 71 137 117 148 c 1,85,86
 118 360 118 360 114 360 c 0,87,88
 112 360 112 360 95 344 c 0,89,90
 74 325 74 325 74 328 c 0,91,92
 74 332 74 332 110.5 392.5 c 128,-1,93
 147 453 147 453 150 453 c 0,94,95
 154 453 154 453 151 150 c 1,96,97
 166 149 166 149 181 146 c 128,-1,98
 196 143 196 143 204.5 140 c 128,-1,99
 213 137 213 137 213 137 c 2,100,101
 215 137 215 137 242 175 c 128,-1,102
 269 213 269 213 269 213 c 2,103,104
 271 213 271 213 298 212.5 c 128,-1,105
 325 212 325 212 360 211 c 128,-1,106
 395 210 395 210 423 209 c 128,-1,107
 451 208 451 208 451 207 c 0,108,109
 451 203 451 203 424 159 c 128,-1,110
 397 115 397 115 371.5 74 c 128,-1,111
 346 33 346 33 348 33 c 2,112,113
 348 33 348 33 351.5 33 c 128,-1,114
 355 33 355 33 360 33.5 c 128,-1,115
 365 34 365 34 371.5 33.5 c 128,-1,116
 378 33 378 33 385 31.5 c 128,-1,117
 392 30 392 30 399 28 c 128,-1,118
 406 26 406 26 412 21.5 c 128,-1,119
 418 17 418 17 423 10.5 c 128,-1,120
 428 4 428 4 431 -5.5 c 128,-1,121
 434 -15 434 -15 434 -26 c 0,122,123
 434 -57 434 -57 406.5 -108 c 128,-1,124
 379 -159 379 -159 353.5 -194.5 c 128,-1,125
 328 -230 328 -230 328 -230 c 2,126,127
 330 -230 330 -230 368.5 -229.5 c 128,-1,128
 407 -229 407 -229 408 -229 c 256,0,1
115 -93 m 1,129,130
 116 122 116 122 116 123 c 1,131,132
 41 108 41 108 41 12 c 0,133,134
 41 -29 41 -29 62 -56 c 128,-1,135
 83 -83 83 -83 115 -93 c 1,129,130
EndSplineSet
EndChar

StartChar: i
Encoding: 105 105 24
Width: 1074
Flags: W
LayerCount: 2
Back
Fore
SplineSet
1067 247 m 0,0,1
 1068 243 1068 243 1068 193.5 c 128,-1,2
 1068 144 1068 144 1067.5 57 c 128,-1,3
 1067 -30 1067 -30 1066 -129.5 c 128,-1,4
 1065 -229 1065 -229 1064 -333 c 128,-1,5
 1063 -437 1063 -437 1062 -520.5 c 128,-1,6
 1061 -604 1061 -604 1060.5 -658 c 128,-1,7
 1060 -712 1060 -712 1060 -712 c 2,8,9
 1060 -715 1060 -715 1033 -735 c 128,-1,10
 1006 -755 1006 -755 1003 -755 c 256,11,12
 1000 -755 1000 -755 1003 -26 c 1,13,14
 973 -74 973 -74 920.5 -109.5 c 128,-1,15
 868 -145 868 -145 812 -145 c 0,16,17
 774 -145 774 -145 745 -131.5 c 128,-1,18
 716 -118 716 -118 703.5 -101.5 c 128,-1,19
 691 -85 691 -85 681.5 -71.5 c 128,-1,20
 672 -58 672 -58 668.5 -58 c 128,-1,21
 665 -58 665 -58 651.5 -73 c 128,-1,22
 638 -88 638 -88 620.5 -106 c 128,-1,23
 603 -124 603 -124 571.5 -139 c 128,-1,24
 540 -154 540 -154 506 -154 c 0,25,26
 483 -154 483 -154 460 -148 c 128,-1,27
 437 -142 437 -142 419.5 -133 c 128,-1,28
 402 -124 402 -124 386.5 -113.5 c 128,-1,29
 371 -103 371 -103 361.5 -93.5 c 128,-1,30
 352 -84 352 -84 345 -78 c 128,-1,31
 338 -72 338 -72 336.5 -72 c 128,-1,32
 335 -72 335 -72 327.5 -83 c 128,-1,33
 320 -94 320 -94 307 -109 c 128,-1,34
 294 -124 294 -124 276.5 -139.5 c 128,-1,35
 259 -155 259 -155 232 -165.5 c 128,-1,36
 205 -176 205 -176 176 -176 c 0,37,38
 99 -176 99 -176 61 -110 c 1,39,40
 61 -131 61 -131 60.5 -151.5 c 128,-1,41
 60 -172 60 -172 60 -187.5 c 128,-1,42
 60 -203 60 -203 59.5 -215 c 128,-1,43
 59 -227 59 -227 59 -234 c 128,-1,44
 59 -241 59 -241 59 -241 c 2,45,46
 59 -243 59 -243 45 -253.5 c 128,-1,47
 31 -264 31 -264 17 -273.5 c 128,-1,48
 3 -283 3 -283 2 -283 c 256,49,50
 1 -283 1 -283 0.5 -257.5 c 128,-1,51
 0 -232 0 -232 0 -191 c 128,-1,52
 0 -150 0 -150 0.5 -101 c 128,-1,53
 1 -52 1 -52 1 -1.5 c 128,-1,54
 1 49 1 49 1.5 89.5 c 128,-1,55
 2 130 2 130 2.5 157 c 128,-1,56
 3 184 3 184 3 185 c 0,57,58
 3 187 3 187 33.5 216 c 128,-1,59
 64 245 64 245 66 245 c 0,60,61
 67 245 67 245 66.5 174 c 128,-1,62
 66 103 66 103 64 16 c 1,63,64
 107 96 107 96 202 96 c 0,65,66
 234 96 234 96 261.5 88 c 128,-1,67
 289 80 289 80 305.5 68.5 c 128,-1,68
 322 57 322 57 334 45 c 128,-1,69
 346 33 346 33 352.5 25 c 128,-1,70
 359 17 359 17 361 17 c 256,71,72
 363 17 363 17 370 28 c 128,-1,73
 377 39 377 39 390.5 55 c 128,-1,74
 404 71 404 71 424.5 87 c 128,-1,75
 445 103 445 103 479.5 114.5 c 128,-1,76
 514 126 514 126 556 126 c 0,77,78
 593 126 593 126 623 115.5 c 128,-1,79
 653 105 653 105 668 92 c 128,-1,80
 683 79 683 79 694 68.5 c 128,-1,81
 705 58 705 58 708 58 c 256,82,83
 711 58 711 58 726.5 70.5 c 128,-1,84
 742 83 742 83 762 98 c 128,-1,85
 782 113 782 113 815 125 c 128,-1,86
 848 137 848 137 881 137 c 0,87,88
 967 137 967 137 1003 97 c 1,89,-1
 1003 186 l 2,90,91
 1003 189 1003 189 1034 218 c 128,-1,92
 1065 247 1065 247 1067 247 c 0,0,1
EndSplineSet
EndChar

StartChar: j
Encoding: 106 106 25
Width: 691
Flags: W
LayerCount: 2
Back
Fore
SplineSet
686 242 m 0,0,1
 687 242 687 242 687 195.5 c 128,-1,2
 687 149 687 149 686.5 74 c 128,-1,3
 686 -1 686 -1 685 -91 c 128,-1,4
 684 -181 684 -181 683 -272 c 128,-1,5
 682 -363 682 -363 681.5 -437.5 c 128,-1,6
 681 -512 681 -512 680.5 -560 c 128,-1,7
 680 -608 680 -608 680 -608 c 2,8,9
 680 -610 680 -610 654.5 -627.5 c 128,-1,10
 629 -645 629 -645 627 -645 c 0,11,12
 622 -645 622 -645 626 -22 c 1,13,14
 602 -66 602 -66 553.5 -99 c 128,-1,15
 505 -132 505 -132 446 -132 c 0,16,17
 416 -132 416 -132 390 -122.5 c 128,-1,18
 364 -113 364 -113 348 -99 c 128,-1,19
 332 -85 332 -85 320 -71 c 128,-1,20
 308 -57 308 -57 301.5 -47.5 c 128,-1,21
 295 -38 295 -38 294 -38 c 128,-1,22
 293 -38 293 -38 286 -45.5 c 128,-1,23
 279 -53 279 -53 269.5 -63.5 c 128,-1,24
 260 -74 260 -74 245.5 -87 c 128,-1,25
 231 -100 231 -100 215.5 -111 c 128,-1,26
 200 -122 200 -122 180 -129 c 128,-1,27
 160 -136 160 -136 141 -136 c 0,28,29
 76 -136 76 -136 39 -99 c 128,-1,30
 2 -62 2 -62 2 -21 c 0,31,32
 2 -8 2 -8 6.5 7.5 c 128,-1,33
 11 23 11 23 20 41 c 128,-1,34
 29 59 29 59 45.5 75 c 128,-1,35
 62 91 62 91 83.5 105 c 128,-1,36
 105 119 105 119 137 127 c 128,-1,37
 169 135 169 135 206 135 c 0,38,39
 236 135 236 135 258.5 127 c 128,-1,40
 281 119 281 119 292.5 107 c 128,-1,41
 304 95 304 95 311 83.5 c 128,-1,42
 318 72 318 72 321.5 63.5 c 128,-1,43
 325 55 325 55 327 55 c 0,44,45
 328 55 328 55 350 72 c 128,-1,46
 372 89 372 89 406 106 c 128,-1,47
 440 123 440 123 470 123 c 0,48,49
 592 123 592 123 626 69 c 1,50,51
 627 140 627 140 627 188 c 0,52,53
 627 191 627 191 655.5 216.5 c 128,-1,54
 684 242 684 242 686 242 c 0,0,1
EndSplineSet
EndChar

StartChar: k
Encoding: 107 107 26
Width: 375
Flags: W
LayerCount: 2
Back
Fore
SplineSet
372 244 m 0,0,1
 373 240 373 240 372.5 197 c 128,-1,2
 372 154 372 154 371 83.5 c 128,-1,3
 370 13 370 13 368.5 -52 c 128,-1,4
 367 -117 367 -117 366 -166 c 128,-1,5
 365 -215 365 -215 365 -215 c 2,6,7
 365 -218 365 -218 338 -236.5 c 128,-1,8
 311 -255 311 -255 308 -255 c 0,9,10
 307 -255 307 -255 307 -83 c 1,11,12
 255 -136 255 -136 176 -136 c 0,13,14
 89 -136 89 -136 61 -76 c 1,15,16
 58 -191 58 -191 58 -215 c 0,17,18
 58 -218 58 -218 31 -236.5 c 128,-1,19
 4 -255 4 -255 2 -255 c 0,20,21
 1 -255 1 -255 0.5 -231 c 128,-1,22
 0 -207 0 -207 0 -168 c 128,-1,23
 0 -129 0 -129 0 -82.5 c 128,-1,24
 0 -36 0 -36 0.5 11 c 128,-1,25
 1 58 1 58 1.5 96.5 c 128,-1,26
 2 135 2 135 2 160.5 c 128,-1,27
 2 186 2 186 2 187 c 0,28,29
 2 189 2 189 32.5 216.5 c 128,-1,30
 63 244 63 244 65 244 c 0,31,32
 66 244 66 244 65.5 185.5 c 128,-1,33
 65 127 65 127 63 51 c 1,34,35
 87 83 87 83 128 107 c 128,-1,36
 169 131 169 131 201 131 c 0,37,38
 262 131 262 131 308 95 c 1,39,40
 308 109 308 109 308 124 c 128,-1,41
 308 139 308 139 308.5 149.5 c 128,-1,42
 309 160 309 160 309 168.5 c 128,-1,43
 309 177 309 177 309 182 c 128,-1,44
 309 187 309 187 309 187 c 2,45,46
 309 189 309 189 339.5 216.5 c 128,-1,47
 370 244 370 244 372 244 c 0,0,1
EndSplineSet
EndChar

StartChar: l
Encoding: 108 108 27
Width: 421
Flags: W
LayerCount: 2
Back
Fore
SplineSet
204 141 m 0,0,1
 240 141 240 141 275.5 134 c 128,-1,2
 311 127 311 127 344.5 112.5 c 128,-1,3
 378 98 378 98 399 71.5 c 128,-1,4
 420 45 420 45 420 11 c 0,5,6
 420 -32 420 -32 383 -68 c 128,-1,7
 346 -104 346 -104 293 -122.5 c 128,-1,8
 240 -141 240 -141 189 -141 c 0,9,10
 108 -141 108 -141 54.5 -104 c 128,-1,11
 1 -67 1 -67 1 0 c 0,12,13
 1 38 1 38 32.5 71 c 128,-1,14
 64 104 64 104 111 122.5 c 128,-1,15
 158 141 158 141 204 141 c 0,0,1
EndSplineSet
EndChar

StartChar: m
Encoding: 109 109 28
Width: 346
Flags: W
LayerCount: 2
Back
Fore
SplineSet
320 138 m 0,0,1
 334 138 334 138 339.5 36 c 128,-1,2
 345 -66 345 -66 342 -228.5 c 128,-1,3
 339 -391 339 -391 337 -475.5 c 128,-1,4
 335 -560 335 -560 332 -639 c 0,5,6
 332 -643 332 -643 332 -644.5 c 128,-1,7
 332 -646 332 -646 332 -646 c 2,8,9
 332 -652 332 -652 300 -683 c 128,-1,10
 268 -714 268 -714 263 -714 c 1,11,-1
 266 -79 l 2,12,13
 266 -78 266 -78 264 -79.5 c 128,-1,14
 262 -81 262 -81 257.5 -84.5 c 128,-1,15
 253 -88 253 -88 246.5 -92.5 c 128,-1,16
 240 -97 240 -97 231 -102.5 c 128,-1,17
 222 -108 222 -108 211.5 -113.5 c 128,-1,18
 201 -119 201 -119 188 -124 c 128,-1,19
 175 -129 175 -129 160.5 -133 c 128,-1,20
 146 -137 146 -137 128.5 -139.5 c 128,-1,21
 111 -142 111 -142 93 -142 c 0,22,23
 40 -142 40 -142 20.5 -121.5 c 128,-1,24
 1 -101 1 -101 1 -61 c 0,25,26
 1 -45 1 -45 6 -26.5 c 128,-1,27
 11 -8 11 -8 22.5 15.5 c 128,-1,28
 34 39 34 39 58 59.5 c 128,-1,29
 82 80 82 80 115 98 c 128,-1,30
 148 116 148 116 201 127 c 128,-1,31
 254 138 254 138 320 138 c 0,0,1
EndSplineSet
EndChar

StartChar: n
Encoding: 110 110 29
Width: 357
Flags: W
LayerCount: 2
Back
Fore
SplineSet
350 39 m 0,0,1
 351 36 351 36 350.5 -7.5 c 128,-1,2
 350 -51 350 -51 349 -128 c 128,-1,3
 348 -205 348 -205 347 -294 c 128,-1,4
 346 -383 346 -383 344.5 -477.5 c 128,-1,5
 343 -572 343 -572 342 -650 c 128,-1,6
 341 -728 341 -728 340 -783 c 128,-1,7
 339 -838 339 -838 339 -847 c 0,8,9
 339 -861 339 -861 309.5 -895 c 128,-1,10
 280 -929 280 -929 269 -929 c 0,11,12
 253 -929 253 -929 204.5 -841.5 c 128,-1,13
 156 -754 156 -754 115 -661 c 128,-1,14
 74 -568 74 -568 74 -550 c 0,15,16
 74 -535 74 -535 100.5 -509.5 c 128,-1,17
 127 -484 127 -484 166 -484 c 0,18,19
 176 -484 176 -484 168 -491 c 0,20,21
 143 -510 143 -510 141 -522 c 0,22,23
 140 -524 140 -524 140 -526 c 0,24,25
 140 -542 140 -542 195 -641 c 128,-1,26
 250 -740 250 -740 264 -743 c 1,27,28
 266 -565 266 -565 277 -75 c 1,29,30
 238 -106 238 -106 191 -124.5 c 128,-1,31
 144 -143 144 -143 100 -143 c 0,32,33
 88 -143 88 -143 73 -139.5 c 128,-1,34
 58 -136 58 -136 40.5 -128 c 128,-1,35
 23 -120 23 -120 11.5 -102.5 c 128,-1,36
 0 -85 0 -85 0 -60 c 0,37,38
 0 -23 0 -23 29 14.5 c 128,-1,39
 58 52 58 52 98 78.5 c 128,-1,40
 138 105 138 105 178.5 122 c 128,-1,41
 219 139 219 139 243 139 c 0,42,43
 263 139 263 139 286.5 129.5 c 128,-1,44
 310 120 310 120 330 96 c 128,-1,45
 350 72 350 72 350 39 c 0,0,1
EndSplineSet
EndChar

StartChar: o
Encoding: 111 111 30
Width: 363
Flags: W
LayerCount: 2
Back
Fore
SplineSet
1 -54 m 0,0,1
 1 21 1 21 87 83 c 0,2,3
 165 140 165 140 247 141 c 0,4,5
 332 143 332 143 349 76 c 0,6,7
 352 62 352 62 352 46 c 0,8,9
 352 40 352 40 356.5 -366.5 c 128,-1,10
 361 -773 361 -773 361 -790 c 0,11,12
 361 -802 361 -802 325.5 -820 c 128,-1,13
 290 -838 290 -838 278 -838 c 0,14,15
 267 -838 267 -838 221 -773.5 c 128,-1,16
 175 -709 175 -709 133.5 -636.5 c 128,-1,17
 92 -564 92 -564 92 -544 c 0,18,19
 92 -528 92 -528 114 -505 c 128,-1,20
 136 -482 136 -482 142 -482 c 0,21,22
 145 -483 145 -483 144 -489 c 128,-1,23
 143 -495 143 -495 140.5 -505 c 128,-1,24
 138 -515 138 -515 138 -516 c 0,25,26
 138 -521 138 -521 219 -624.5 c 128,-1,27
 300 -728 300 -728 306 -730 c 1,28,-1
 306 -624 l 2,29,30
 306 -623 306 -623 229 -518 c 128,-1,31
 152 -413 152 -413 152 -399 c 0,32,33
 152 -386 152 -386 174.5 -354.5 c 128,-1,34
 197 -323 197 -323 203 -323 c 0,35,36
 205 -323 205 -323 205.5 -327 c 128,-1,37
 206 -331 206 -331 206 -337.5 c 128,-1,38
 206 -344 206 -344 205.5 -350 c 128,-1,39
 205 -356 205 -356 205 -362 c 128,-1,40
 205 -368 205 -368 205 -369 c 0,41,42
 205 -373 205 -373 230 -401.5 c 128,-1,43
 255 -430 255 -430 280.5 -456 c 128,-1,44
 306 -482 306 -482 306 -481 c 256,45,46
 306 -480 306 -480 306 -465.5 c 128,-1,47
 306 -451 306 -451 306 -429 c 128,-1,48
 306 -407 306 -407 306 -377.5 c 128,-1,49
 306 -348 306 -348 306.5 -316 c 128,-1,50
 307 -284 307 -284 307 -252 c 128,-1,51
 307 -220 307 -220 306.5 -191 c 128,-1,52
 306 -162 306 -162 306 -140 c 128,-1,53
 306 -118 306 -118 305.5 -104.5 c 128,-1,54
 305 -91 305 -91 304 -91 c 0,55,56
 302 -91 302 -91 277.5 -103.5 c 128,-1,57
 253 -116 253 -116 214.5 -128.5 c 128,-1,58
 176 -141 176 -141 139 -141 c 0,59,60
 80 -141 80 -141 40.5 -118.5 c 128,-1,61
 1 -96 1 -96 1 -54 c 0,0,1
EndSplineSet
EndChar

StartChar: p
Encoding: 112 112 31
Width: 199
Flags: W
LayerCount: 2
Back
Fore
SplineSet
198 -21 m 1,0,-1
 143 -39 l 1,1,-1
 131 -96 l 1,2,-1
 87 -57 l 1,3,-1
 32 -75 l 1,4,-1
 44 -18 l 1,5,-1
 0 21 l 1,6,-1
 56 39 l 1,7,-1
 68 96 l 1,8,-1
 112 57 l 1,9,-1
 167 75 l 1,10,-1
 155 18 l 1,11,-1
 198 -21 l 1,0,-1
EndSplineSet
EndChar

StartChar: q
Encoding: 113 113 32
Width: 1087
Flags: W
LayerCount: 2
Back
Fore
SplineSet
1079 245 m 0,0,1
 1080 245 1080 245 1080 195 c 128,-1,2
 1080 145 1080 145 1079.5 65 c 128,-1,3
 1079 -15 1079 -15 1078 -111.5 c 128,-1,4
 1077 -208 1077 -208 1075.5 -305 c 128,-1,5
 1074 -402 1074 -402 1073 -481.5 c 128,-1,6
 1072 -561 1072 -561 1071.5 -612 c 128,-1,7
 1071 -663 1071 -663 1071 -663 c 2,8,9
 1071 -666 1071 -666 1041.5 -685 c 128,-1,10
 1012 -704 1012 -704 1010 -704 c 0,11,12
 1005 -704 1005 -704 1009 -56 c 1,13,14
 976 -86 976 -86 934 -106 c 128,-1,15
 892 -126 892 -126 852 -126 c 0,16,17
 809 -126 809 -126 778 -119.5 c 128,-1,18
 747 -113 747 -113 732.5 -104 c 128,-1,19
 718 -95 718 -95 710.5 -86 c 128,-1,20
 703 -77 703 -77 700 -70.5 c 128,-1,21
 697 -64 697 -64 694 -64 c 128,-1,22
 691 -64 691 -64 685.5 -70.5 c 128,-1,23
 680 -77 680 -77 669.5 -86.5 c 128,-1,24
 659 -96 659 -96 642.5 -105.5 c 128,-1,25
 626 -115 626 -115 595 -121.5 c 128,-1,26
 564 -128 564 -128 525 -128 c 0,27,28
 492 -128 492 -128 465 -122 c 128,-1,29
 438 -116 438 -116 423 -107.5 c 128,-1,30
 408 -99 408 -99 397.5 -90.5 c 128,-1,31
 387 -82 387 -82 382 -76 c 128,-1,32
 377 -70 377 -70 376 -70 c 0,33,34
 374 -70 374 -70 359.5 -82 c 128,-1,35
 345 -94 345 -94 326 -108 c 128,-1,36
 307 -122 307 -122 273.5 -134 c 128,-1,37
 240 -146 240 -146 203 -146 c 0,38,39
 110 -146 110 -146 70 -105 c 1,40,41
 69 -119 69 -119 69 -132.5 c 128,-1,42
 69 -146 69 -146 68.5 -156.5 c 128,-1,43
 68 -167 68 -167 68 -177.5 c 128,-1,44
 68 -188 68 -188 68 -195.5 c 128,-1,45
 68 -203 68 -203 67.5 -208.5 c 128,-1,46
 67 -214 67 -214 67 -217 c 128,-1,47
 67 -220 67 -220 67 -220 c 2,48,49
 67 -222 67 -222 52 -232 c 128,-1,50
 37 -242 37 -242 22 -251 c 128,-1,51
 7 -260 7 -260 6 -260 c 256,52,53
 5 -260 5 -260 4.5 -245 c 128,-1,54
 4 -230 4 -230 3.5 -204.5 c 128,-1,55
 3 -179 3 -179 3 -146.5 c 128,-1,56
 3 -114 3 -114 3 -77 c 128,-1,57
 3 -40 3 -40 3.5 -4 c 128,-1,58
 4 32 4 32 4.5 65.5 c 128,-1,59
 5 99 5 99 5 124.5 c 128,-1,60
 5 150 5 150 5.5 166 c 128,-1,61
 6 182 6 182 6 183 c 0,62,63
 6 186 6 186 39 213 c 128,-1,64
 72 240 72 240 75 240 c 1,65,66
 75 210 75 210 75 174 c 128,-1,67
 75 138 75 138 73 25 c 1,68,69
 105 69 105 69 160 100.5 c 128,-1,70
 215 132 215 132 263 132 c 0,71,72
 301 132 301 132 330 124 c 128,-1,73
 359 116 359 116 371 105.5 c 128,-1,74
 383 95 383 95 391 87 c 128,-1,75
 399 79 399 79 401.5 79 c 128,-1,76
 404 79 404 79 412.5 85 c 128,-1,77
 421 91 421 91 435.5 100 c 128,-1,78
 450 109 450 109 469.5 118 c 128,-1,79
 489 127 489 127 520 133 c 128,-1,80
 551 139 551 139 586 139 c 0,81,82
 632 139 632 139 667 127.5 c 128,-1,83
 702 116 702 116 716.5 102 c 128,-1,84
 731 88 731 88 741 76.5 c 128,-1,85
 751 65 751 65 754 65 c 0,86,87
 759 65 759 65 769.5 76 c 128,-1,88
 780 87 780 87 793.5 100 c 128,-1,89
 807 113 807 113 838 123.5 c 128,-1,90
 869 134 869 134 911 134 c 0,91,92
 973 134 973 134 1010 117 c 1,93,94
 1010 129 1010 129 1010 140.5 c 128,-1,95
 1010 152 1010 152 1010 160 c 128,-1,96
 1010 168 1010 168 1010 174.5 c 128,-1,97
 1010 181 1010 181 1010.5 184.5 c 128,-1,98
 1011 188 1011 188 1011 188 c 2,99,100
 1011 189 1011 189 1027.5 203.5 c 128,-1,101
 1044 218 1044 218 1060.5 231.5 c 128,-1,102
 1077 245 1077 245 1079 245 c 0,0,1
220 -77 m 0,103,104
 288 -77 288 -77 323.5 -60.5 c 128,-1,105
 359 -44 359 -44 359 -18 c 0,106,107
 359 -5 359 -5 343 13.5 c 128,-1,108
 327 32 327 32 295.5 47.5 c 128,-1,109
 264 63 264 63 229 63 c 0,110,111
 166 63 166 63 128 34.5 c 128,-1,112
 90 6 90 6 90 -17 c 0,113,114
 90 -32 90 -32 107 -46 c 128,-1,115
 124 -60 124 -60 154.5 -68.5 c 128,-1,116
 185 -77 185 -77 220 -77 c 0,103,104
572 -49 m 0,117,118
 633 -49 633 -49 660 -40 c 128,-1,119
 687 -31 687 -31 687 -6 c 0,120,121
 687 7 687 7 665.5 25.5 c 128,-1,122
 644 44 644 44 611 58 c 128,-1,123
 578 72 578 72 551 72 c 0,124,125
 495 72 495 72 458 59 c 128,-1,126
 421 46 421 46 421 29 c 0,127,128
 421 2 421 2 473.5 -23.5 c 128,-1,129
 526 -49 526 -49 572 -49 c 0,117,118
871 -61 m 0,130,131
 924 -61 924 -61 962.5 -43 c 128,-1,132
 1001 -25 1001 -25 1001 3 c 0,133,134
 1001 26 1001 26 962.5 47.5 c 128,-1,135
 924 69 924 69 876 69 c 0,136,137
 840 69 840 69 813 58.5 c 128,-1,138
 786 48 786 48 774.5 34 c 128,-1,139
 763 20 763 20 763 5 c 0,140,141
 763 -18 763 -18 797 -39.5 c 128,-1,142
 831 -61 831 -61 871 -61 c 0,130,131
EndSplineSet
EndChar

StartChar: r
Encoding: 114 114 33
Width: 685
Flags: W
LayerCount: 2
Back
Fore
SplineSet
676 211 m 0,0,1
 677 211 677 211 677 164 c 128,-1,2
 677 117 677 117 676.5 41 c 128,-1,3
 676 -35 676 -35 675.5 -126 c 128,-1,4
 675 -217 675 -217 674 -309 c 128,-1,5
 673 -401 673 -401 672 -476.5 c 128,-1,6
 671 -552 671 -552 670.5 -600.5 c 128,-1,7
 670 -649 670 -649 670 -649 c 2,8,9
 670 -651 670 -651 644 -669 c 128,-1,10
 618 -687 618 -687 616 -687 c 0,11,12
 615 -687 615 -687 614.5 -594 c 128,-1,13
 614 -501 614 -501 614.5 -317 c 128,-1,14
 615 -133 615 -133 615 -57 c 1,15,16
 586 -94 586 -94 534 -117.5 c 128,-1,17
 482 -141 482 -141 427 -141 c 0,18,19
 399 -141 399 -141 377.5 -135.5 c 128,-1,20
 356 -130 356 -130 343.5 -121 c 128,-1,21
 331 -112 331 -112 322.5 -101 c 128,-1,22
 314 -90 314 -90 310.5 -79.5 c 128,-1,23
 307 -69 307 -69 305 -60 c 128,-1,24
 303 -51 303 -51 302.5 -45.5 c 128,-1,25
 302 -40 302 -40 301 -40 c 128,-1,26
 300 -40 300 -40 292.5 -49.5 c 128,-1,27
 285 -59 285 -59 271.5 -72.5 c 128,-1,28
 258 -86 258 -86 240.5 -99.5 c 128,-1,29
 223 -113 223 -113 198 -122.5 c 128,-1,30
 173 -132 173 -132 146 -132 c 0,31,32
 89 -132 89 -132 60 -98 c 1,33,34
 58 -164 58 -164 58 -214 c 0,35,36
 58 -216 58 -216 32 -233.5 c 128,-1,37
 6 -251 6 -251 4 -251 c 0,38,39
 3 -251 3 -251 3 -228 c 128,-1,40
 3 -205 3 -205 3 -168.5 c 128,-1,41
 3 -132 3 -132 3 -87.5 c 128,-1,42
 3 -43 3 -43 3.5 1.5 c 128,-1,43
 4 46 4 46 4 83 c 128,-1,44
 4 120 4 120 4.5 144 c 128,-1,45
 5 168 5 168 5 168 c 2,46,47
 5 170 5 170 33.5 196 c 128,-1,48
 62 222 62 222 64 222 c 0,49,50
 65 222 65 222 65 199.5 c 128,-1,51
 65 177 65 177 65 137 c 128,-1,52
 65 97 65 97 63 54 c 1,53,54
 121 128 121 128 217 128 c 0,55,56
 250 128 250 128 276 120.5 c 128,-1,57
 302 113 302 113 316 102.5 c 128,-1,58
 330 92 330 92 338.5 81.5 c 128,-1,59
 347 71 347 71 351.5 64 c 128,-1,60
 356 57 356 57 357 57 c 0,61,62
 359 57 359 57 373 67 c 128,-1,63
 387 77 387 77 405.5 89 c 128,-1,64
 424 101 424 101 450.5 111.5 c 128,-1,65
 477 122 477 122 500 122 c 0,66,67
 582 122 582 122 616 88 c 1,68,69
 617 130 617 130 617 157 c 0,70,71
 617 159 617 159 645.5 185 c 128,-1,72
 674 211 674 211 676 211 c 0,0,1
170 -72 m 0,73,74
 213 -72 213 -72 254 -48.5 c 128,-1,75
 295 -25 295 -25 295 2 c 0,76,77
 295 31 295 31 260 48.5 c 128,-1,78
 225 66 225 66 173 66 c 0,79,80
 136 66 136 66 109.5 47.5 c 128,-1,81
 83 29 83 29 83 8 c 0,82,83
 83 -28 83 -28 111.5 -50 c 128,-1,84
 140 -72 140 -72 170 -72 c 0,73,74
464 -79 m 0,85,86
 511 -79 511 -79 554 -60.5 c 128,-1,87
 597 -42 597 -42 597 -13 c 0,88,89
 597 13 597 13 564 38.5 c 128,-1,90
 531 64 531 64 484 64 c 0,91,92
 435 64 435 64 400 43.5 c 128,-1,93
 365 23 365 23 365 -6 c 0,94,95
 365 -33 365 -33 388 -56 c 128,-1,96
 411 -79 411 -79 464 -79 c 0,85,86
EndSplineSet
EndChar

StartChar: s
Encoding: 115 115 34
Width: 397
Flags: W
LayerCount: 2
Back
Fore
SplineSet
394 247 m 0,0,1
 395 243 395 243 395 197.5 c 128,-1,2
 395 152 395 152 393.5 77 c 128,-1,3
 392 2 392 2 390.5 -66.5 c 128,-1,4
 389 -135 389 -135 388 -187.5 c 128,-1,5
 387 -240 387 -240 387 -240 c 2,6,7
 387 -242 387 -242 358.5 -262 c 128,-1,8
 330 -282 330 -282 328 -282 c 0,9,10
 325 -282 325 -282 325 -85 c 1,11,12
 273 -143 273 -143 184 -143 c 0,13,14
 105 -143 105 -143 64 -103 c 1,15,16
 64 -137 64 -137 63.5 -170.5 c 128,-1,17
 63 -204 63 -204 62.5 -222 c 128,-1,18
 62 -240 62 -240 62 -240 c 2,19,20
 62 -243 62 -243 33.5 -262.5 c 128,-1,21
 5 -282 5 -282 2 -282 c 0,22,23
 1 -282 1 -282 0.5 -256.5 c 128,-1,24
 0 -231 0 -231 0 -190 c 128,-1,25
 0 -149 0 -149 0.5 -99.5 c 128,-1,26
 1 -50 1 -50 1 0 c 128,-1,27
 1 50 1 50 1.5 91 c 128,-1,28
 2 132 2 132 2.5 159 c 128,-1,29
 3 186 3 186 3 187 c 0,30,31
 3 190 3 190 35 218.5 c 128,-1,32
 67 247 67 247 69 247 c 0,33,34
 70 247 70 247 70 228.5 c 128,-1,35
 70 210 70 210 69.5 165.5 c 128,-1,36
 69 121 69 121 69 87 c 1,37,38
 96 111 96 111 134 125 c 128,-1,39
 172 139 172 139 201 139 c 0,40,41
 282 139 282 139 327 104 c 1,42,43
 328 153 328 153 328 187 c 0,44,45
 328 190 328 190 360 218.5 c 128,-1,46
 392 247 392 247 394 247 c 0,0,1
199 -80 m 0,47,48
 294 -80 294 -80 326 -57 c 1,49,-1
 326 21 l 1,50,51
 304 41 304 41 263.5 54.5 c 128,-1,52
 223 68 223 68 186 68 c 0,53,54
 102 68 102 68 68 46 c 1,55,-1
 66 -23 l 1,56,57
 87 -47 87 -47 121.5 -63.5 c 128,-1,58
 156 -80 156 -80 199 -80 c 0,47,48
EndSplineSet
EndChar

StartChar: t
Encoding: 116 116 35
Width: 417
Flags: WO
LayerCount: 2
Back
Fore
SplineSet
201 139 m 0,0,1
 236 139 236 139 271.5 132 c 128,-1,2
 307 125 307 125 340.5 110.5 c 128,-1,3
 374 96 374 96 395 70 c 128,-1,4
 416 44 416 44 416 9 c 0,5,6
 416 -34 416 -34 378.5 -69.5 c 128,-1,7
 341 -105 341 -105 289 -123 c 128,-1,8
 237 -141 237 -141 186 -141 c 0,9,10
 105 -141 105 -141 52.5 -105 c 128,-1,11
 0 -69 0 -69 0 -1 c 0,12,13
 0 54 0 54 64.5 96.5 c 128,-1,14
 129 139 129 139 201 139 c 0,0,1
221 -108 m 0,15,16
 269 -108 269 -108 303.5 -83 c 128,-1,17
 338 -58 338 -58 338 -6 c 0,18,19
 338 32 338 32 280.5 69 c 128,-1,20
 223 106 223 106 184 106 c 0,21,22
 171 106 171 106 156 102.5 c 128,-1,23
 141 99 141 99 123 89 c 128,-1,24
 105 79 105 79 93.5 57 c 128,-1,25
 82 35 82 35 82 4 c 0,26,27
 82 -36 82 -36 133 -72 c 128,-1,28
 184 -108 184 -108 221 -108 c 0,15,16
EndSplineSet
EndChar

StartChar: u
Encoding: 117 117 36
Width: 294
Flags: W
LayerCount: 2
Back
Fore
SplineSet
284 18 m 0,0,1
 285 12 285 12 284.5 -44 c 128,-1,2
 284 -100 284 -100 283.5 -191.5 c 128,-1,3
 283 -283 283 -283 282.5 -368.5 c 128,-1,4
 282 -454 282 -454 281.5 -518 c 128,-1,5
 281 -582 281 -582 281 -583 c 0,6,7
 281 -593 281 -593 269.5 -625.5 c 128,-1,8
 258 -658 258 -658 250 -658 c 0,9,10
 244 -658 244 -658 232 -370 c 128,-1,11
 220 -82 220 -82 220 -82 c 2,12,13
 219 -82 219 -82 198.5 -96 c 128,-1,14
 178 -110 178 -110 141.5 -124 c 128,-1,15
 105 -138 105 -138 65 -138 c 0,16,17
 39 -138 39 -138 18.5 -114.5 c 128,-1,18
 -2 -91 -2 -91 -2 -47 c 0,19,20
 -2 -9 -2 -9 21 27 c 128,-1,21
 44 63 44 63 77 86.5 c 128,-1,22
 110 110 110 110 144.5 124 c 128,-1,23
 179 138 179 138 203 138 c 0,24,25
 237 138 237 138 254.5 126 c 128,-1,26
 272 114 272 114 278 89.5 c 128,-1,27
 284 65 284 65 284 18 c 0,0,1
137 -95 m 0,28,29
 167 -95 167 -95 205 -54.5 c 128,-1,30
 243 -14 243 -14 243 24 c 0,31,32
 243 56 243 56 223.5 82.5 c 128,-1,33
 204 109 204 109 180 109 c 0,34,35
 144 109 144 109 102.5 69 c 128,-1,36
 61 29 61 29 61 -16 c 0,37,38
 61 -52 61 -52 81 -73.5 c 128,-1,39
 101 -95 101 -95 137 -95 c 0,28,29
EndSplineSet
EndChar

StartChar: v
Encoding: 118 118 37
Width: 348
Flags: W
LayerCount: 2
Back
Fore
SplineSet
343 40 m 1,0,1
 344 40 344 40 341.5 -166.5 c 128,-1,2
 339 -373 339 -373 335.5 -595.5 c 128,-1,3
 332 -818 332 -818 332 -834 c 0,4,5
 332 -848 332 -848 303 -881.5 c 128,-1,6
 274 -915 274 -915 263 -915 c 0,7,8
 247 -915 247 -915 200 -828.5 c 128,-1,9
 153 -742 153 -742 113 -650.5 c 128,-1,10
 73 -559 73 -559 73 -541 c 0,11,12
 73 -536 73 -536 79 -525.5 c 128,-1,13
 85 -515 85 -515 95.5 -503.5 c 128,-1,14
 106 -492 106 -492 124 -484 c 128,-1,15
 142 -476 142 -476 163 -476 c 0,16,17
 172 -476 172 -476 164 -483 c 0,18,19
 138 -505 138 -505 138 -518 c 0,20,21
 138 -534 138 -534 191.5 -631.5 c 128,-1,22
 245 -729 245 -729 259 -731 c 1,23,24
 260 -558 260 -558 271 -73 c 1,25,26
 233 -103 233 -103 187 -121.5 c 128,-1,27
 141 -140 141 -140 98 -140 c 0,28,29
 86 -140 86 -140 71.5 -136.5 c 128,-1,30
 57 -133 57 -133 40 -125 c 128,-1,31
 23 -117 23 -117 11.5 -99.5 c 128,-1,32
 0 -82 0 -82 0 -57 c 0,33,34
 0 -21 0 -21 28.5 16 c 128,-1,35
 57 53 57 53 96 79.5 c 128,-1,36
 135 106 135 106 174.5 122.5 c 128,-1,37
 214 139 214 139 238 139 c 0,38,39
 272 139 272 139 307.5 113 c 128,-1,40
 343 87 343 87 343 40 c 1,0,1
156 -88 m 0,41,42
 183 -88 183 -88 212 -76.5 c 128,-1,43
 241 -65 241 -65 264.5 -39 c 128,-1,44
 288 -13 288 -13 288 20 c 0,45,46
 288 51 288 51 267 78 c 128,-1,47
 246 105 246 105 208 105 c 0,48,49
 173 105 173 105 116.5 65 c 128,-1,50
 60 25 60 25 60 -13 c 0,51,52
 60 -44 60 -44 83 -66 c 128,-1,53
 106 -88 106 -88 156 -88 c 0,41,42
EndSplineSet
EndChar

StartChar: w
Encoding: 119 119 38
Width: 350
Flags: W
LayerCount: 2
Back
Fore
SplineSet
0 -55 m 0,0,1
 0 21 0 21 84 83 c 0,2,3
 161 139 161 139 240 140 c 0,4,5
 322 140 322 140 337 73 c 0,6,7
 339 60 339 60 339 45 c 0,8,9
 339 39 339 39 343.5 -366 c 128,-1,10
 348 -771 348 -771 348 -787 c 0,11,12
 348 -799 348 -799 314 -817 c 128,-1,13
 280 -835 280 -835 269 -835 c 128,-1,14
 258 -835 258 -835 213.5 -771 c 128,-1,15
 169 -707 169 -707 129 -634.5 c 128,-1,16
 89 -562 89 -562 89 -542 c 0,17,18
 89 -527 89 -527 110 -503.5 c 128,-1,19
 131 -480 131 -480 137 -480 c 0,20,21
 140 -482 140 -482 139 -488 c 128,-1,22
 138 -494 138 -494 135.5 -503.5 c 128,-1,23
 133 -513 133 -513 133 -515 c 0,24,25
 133 -519 133 -519 211 -622 c 128,-1,26
 289 -725 289 -725 295 -727 c 1,27,-1
 295 -622 l 2,28,29
 295 -621 295 -621 220 -516.5 c 128,-1,30
 145 -412 145 -412 145 -398 c 0,31,32
 145 -385 145 -385 167.5 -353.5 c 128,-1,33
 190 -322 190 -322 196 -322 c 0,34,35
 198 -322 198 -322 198.5 -326 c 128,-1,36
 199 -330 199 -330 199 -336.5 c 128,-1,37
 199 -343 199 -343 198.5 -349 c 128,-1,38
 198 -355 198 -355 198 -361 c 128,-1,39
 198 -367 198 -367 198 -368 c 0,40,41
 198 -372 198 -372 222 -400.5 c 128,-1,42
 246 -429 246 -429 270.5 -455 c 128,-1,43
 295 -481 295 -481 295 -479 c 2,44,45
 295 -479 295 -479 295.5 -464.5 c 128,-1,46
 296 -450 296 -450 296 -428 c 128,-1,47
 296 -406 296 -406 296 -376.5 c 128,-1,48
 296 -347 296 -347 296 -315.5 c 128,-1,49
 296 -284 296 -284 296 -252 c 128,-1,50
 296 -220 296 -220 296 -191.5 c 128,-1,51
 296 -163 296 -163 295.5 -140.5 c 128,-1,52
 295 -118 295 -118 294.5 -105 c 128,-1,53
 294 -92 294 -92 293 -92 c 0,54,55
 291 -92 291 -92 267.5 -104 c 128,-1,56
 244 -116 244 -116 207 -128.5 c 128,-1,57
 170 -141 170 -141 134 -141 c 0,58,59
 77 -141 77 -141 38.5 -118.5 c 128,-1,60
 0 -96 0 -96 0 -55 c 0,0,1
161 -88 m 0,61,62
 181 -88 181 -88 202.5 -82.5 c 128,-1,63
 224 -77 224 -77 245 -65 c 128,-1,64
 266 -53 266 -53 279.5 -31.5 c 128,-1,65
 293 -10 293 -10 293 19 c 0,66,67
 293 60 293 60 270.5 81 c 128,-1,68
 248 102 248 102 216 102 c 0,69,70
 198 102 198 102 174 95 c 128,-1,71
 150 88 150 88 124.5 74.5 c 128,-1,72
 99 61 99 61 81.5 36 c 128,-1,73
 64 11 64 11 64 -19 c 256,74,75
 64 -49 64 -49 91 -68.5 c 128,-1,76
 118 -88 118 -88 161 -88 c 0,61,62
EndSplineSet
EndChar

StartChar: x
Encoding: 120 120 39
Width: 199
Flags: W
LayerCount: 2
Back
Fore
SplineSet
198 -21 m 1,0,-1
 143 -39 l 1,1,-1
 131 -96 l 1,2,-1
 87 -57 l 1,3,-1
 32 -75 l 1,4,-1
 44 -18 l 1,5,-1
 0 21 l 1,6,-1
 56 39 l 1,7,-1
 68 96 l 1,8,-1
 112 57 l 1,9,-1
 167 75 l 1,10,-1
 155 18 l 1,11,-1
 198 -21 l 1,0,-1
EndSplineSet
EndChar

StartChar: y
Encoding: 121 121 40
Width: 608
Flags: W
LayerCount: 2
Back
Fore
SplineSet
58.236328125 -100.454101562 m 1,0,-1
 58.236328125 -131.0859375 l 2,1,2
 57.3759765625 -143.131835938 57.3759765625 -143.131835938 57.3759765625 -162.061523438 c 2,3,-1
 57.3759765625 -186.153320312 l 2,4,5
 56.515625 -193.037109375 56.515625 -193.037109375 56.515625 -202.501953125 c 2,6,-1
 56.515625 -208.524414062 l 2,7,8
 56.515625 -209.481445312 56.515625 -209.481445312 44.4697265625 -218.849609375 c 0,9,10
 34.1376953125 -226.885742188 34.1376953125 -226.885742188 20.376953125 -236.05859375 c 0,11,12
 9.3154296875 -244.663085938 9.3154296875 -244.663085938 7.470703125 -244.663085938 c 0,13,14
 6.6103515625 -244.663085938 6.6103515625 -244.663085938 6.6103515625 -222.291992188 c 0,15,16
 5.75 -207.6640625 5.75 -207.6640625 5.75 -165.502929688 c 0,17,18
 5.75 -116.458007812 5.75 -116.458007812 6.6103515625 -88.0634765625 c 2,19,-1
 6.6103515625 -2.01953125 l 2,20,21
 6.6103515625 71.9775390625 6.6103515625 71.9775390625 8.3310546875 133.928710938 c 2,22,-1
 8.3310546875 158.021484375 l 2,23,24
 8.3310546875 159.94140625 8.3310546875 159.94140625 34.458984375 184.794921875 c 128,-1,25
 60.5869140625 209.647460938 60.5869140625 209.647460938 62.5390625 209.647460938 c 0,26,27
 63.3994140625 209.647460938 63.3994140625 209.647460938 63.3994140625 148.556640625 c 2,28,-1
 62.0224609375 77.9150390625 l 1,29,30
 68.7841796875 83.072265625 68.7841796875 83.072265625 78.0263671875 89.1865234375 c 0,31,32
 116.067382812 115 116.067382812 115 183 115 c 0,33,34
 233.763671875 115 233.763671875 115 257.858398438 90.9072265625 c 0,35,36
 273.650390625 74.0625 273.650390625 74.0625 282.810546875 53.908203125 c 0,37,38
 285.391601562 46.1650390625 285.391601562 46.1650390625 287.11328125 46.1650390625 c 0,39,40
 287.490234375 46.1650390625 287.490234375 46.1650390625 289.424804688 47.609375 c 128,-1,41
 291.359375 49.0537109375 291.359375 49.0537109375 296.560546875 53.0380859375 c 128,-1,42
 301.760742188 57.021484375 301.760742188 57.021484375 306.903320312 60.7919921875 c 0,43,44
 328.5 77.9208984375 328.5 77.9208984375 357.455078125 91.2978515625 c 128,-1,45
 386.409179688 104.673828125 386.409179688 104.673828125 410.155273438 104.673828125 c 0,46,47
 514.698242188 104.673828125 514.698242188 104.673828125 544.383789062 58.2109375 c 1,48,49
 545.244140625 98.6513671875 545.244140625 98.6513671875 545.244140625 160.602539062 c 0,50,51
 545.244140625 163.045898438 545.244140625 163.045898438 569.58203125 185.055664062 c 128,-1,52
 593.920898438 207.06640625 593.920898438 207.06640625 596.009765625 207.06640625 c 0,53,54
 596.870117188 207.06640625 596.870117188 207.06640625 596.870117188 167.486328125 c 0,55,56
 596.870117188 127.044921875 596.870117188 127.044921875 595.149414062 -79.458984375 c 0,57,58
 595.03125 -93.6875 595.03125 -93.6875 593.799804688 -210.174804688 c 128,-1,59
 592.568359375 -326.663085938 592.568359375 -326.663085938 592.568359375 -377.170898438 c 0,60,61
 591.708007812 -420.192382812 591.708007812 -420.192382812 591.708007812 -483.00390625 c 2,62,-1
 590.84765625 -524.305664062 l 2,63,64
 590.84765625 -526.141601562 590.84765625 -526.141601562 569.086914062 -541.141601562 c 128,-1,65
 547.325195312 -556.141601562 547.325195312 -556.141601562 545.244140625 -556.141601562 c 0,66,67
 540.508789062 -556.141601562 540.508789062 -556.141601562 544.383789062 -20.0888671875 c 1,68,69
 533.935546875 -39.3515625 533.935546875 -39.3515625 517.984375 -56.33203125 c 128,-1,70
 502.032226562 -73.3125 502.032226562 -73.3125 482.251953125 -86.412109375 c 128,-1,71
 462.47265625 -99.5126953125 462.47265625 -99.5126953125 438.366210938 -107.125 c 128,-1,72
 414.260742188 -114.737304688 414.260742188 -114.737304688 389.504882812 -114.737304688 c 0,73,74
 336.564453125 -114.737304688 336.564453125 -114.737304688 305.181640625 -86.3427734375 c 0,75,76
 278.000976562 -61.7490234375 278.000976562 -61.7490234375 265.6015625 -41.599609375 c 0,77,78
 259.1484375 -33.8564453125 259.1484375 -33.8564453125 258.71875 -33.8564453125 c 0,79,80
 257.857421875 -33.8564453125 257.857421875 -33.8564453125 251.834960938 -39.87890625 c 0,81,82
 248.381835938 -43.3330078125 248.381835938 -43.3330078125 238.068359375 -55.3671875 c 0,83,84
 218.327148438 -76.626953125 218.327148438 -76.626953125 191.604492188 -96.66796875 c 0,85,86
 161.48828125 -118.178710938 161.48828125 -118.178710938 127.071289062 -118.178710938 c 0,87,88
 88.2431640625 -118.178710938 88.2431640625 -118.178710938 58.236328125 -100.454101562 c 1,0,-1
EndSplineSet
EndChar
